<mxfile host="app.diagrams.net" modified="2024-03-07T00:13:09.622Z" agent="Mozilla/5.0 (Macintosh; Intel Mac OS X 10_15_7) AppleWebKit/537.36 (KHTML, like Gecko) Chrome/122.0.0.0 Safari/537.36" etag="o5TTQg8tJreJ1dh-wQzX" version="24.0.2" type="device">
  <diagram name="Page-1" id="qRDzWQ_09UBjKKPDFx_e">
    <mxGraphModel dx="1434" dy="795" grid="1" gridSize="10" guides="1" tooltips="1" connect="1" arrows="1" fold="1" page="1" pageScale="1" pageWidth="850" pageHeight="1100" math="0" shadow="0">
      <root>
        <mxCell id="0" />
        <mxCell id="1" parent="0" />
        <mxCell id="AIXGUVuePgGpQfYwOEFD-1" value="INPUT&lt;div&gt;image_input&lt;/div&gt;&lt;div&gt;[null, 64, 128, filterSize]&lt;/div&gt;" style="rounded=0;whiteSpace=wrap;html=1;" vertex="1" parent="1">
          <mxGeometry x="170" y="300" width="180" height="60" as="geometry" />
        </mxCell>
        <mxCell id="AIXGUVuePgGpQfYwOEFD-2" value="INPUT&lt;div&gt;image_input&lt;/div&gt;&lt;div&gt;[null, 64, 128, filterSize]&lt;/div&gt;" style="rounded=0;whiteSpace=wrap;html=1;" vertex="1" parent="1">
          <mxGeometry x="480" y="300" width="180" height="60" as="geometry" />
        </mxCell>
      </root>
    </mxGraphModel>
  </diagram>
</mxfile>
